<?xml version="1.0" encoding="utf-8"?>
<!-- Generator: Adobe Illustrator 26.1.0, SVG Export Plug-In . SVG Version: 6.00 Build 0)  -->
<svg version="1.1" id="Слой_1" xmlns="http://www.w3.org/2000/svg" xmlns:xlink="http://www.w3.org/1999/xlink" x="0px" y="0px"
	 viewBox="0 0 50 50" style="enable-background:new 0 0 50 50;" xml:space="preserve">
<style type="text/css">
	.st0{fill:#151718;stroke:url(#SVGID_1_);stroke-miterlimit:10;}
	.st1{fill:url(#SVGID_00000142881296541739952060000005318821981923049638_);}
	.st2{fill:url(#SVGID_00000042720885516176083510000001906232159488026246_);}
	.st3{fill:#161616;}
	
		.st4{fill:url(#SVGID_00000124157623142656885320000011298027262476060333_);stroke:#FFFFFF;stroke-width:0.5;stroke-miterlimit:10;}
	
		.st5{fill:url(#SVGID_00000154402572321913101200000006412245508715033778_);stroke:#FFFFFF;stroke-width:0.75;stroke-miterlimit:10;}
	.st6{fill:url(#SVGID_00000066503750496830874510000015548354041682700165_);}
	.st7{fill:url(#SVGID_00000148633429290657001230000011820339059994097038_);}
	.st8{fill:url(#SVGID_00000183952935793650945880000011316325005025302169_);}
	.st9{fill:url(#SVGID_00000049182337217906737160000014072478830267755688_);}
	.st10{fill:url(#SVGID_00000139286665314783115100000007743427675600727699_);}
	.st11{fill:url(#SVGID_00000044177886139436218750000015456706501741400717_);}
	
		.st12{fill:url(#SVGID_00000077324845607437975930000011257169759058421903_);stroke:#FFFFFF;stroke-width:0.75;stroke-miterlimit:10;}
	.st13{fill:url(#SVGID_00000040563976427768468700000000152421364710248845_);}
	.st14{fill:url(#SVGID_00000168832741186968557930000013490286561557210779_);}
</style>
<linearGradient id="SVGID_1_" gradientUnits="userSpaceOnUse" x1="3.2069" y1="24.9989" x2="48.1693" y2="24.9989">
	<stop  offset="4.436541e-02" style="stop-color:#3E3E3F"/>
	<stop  offset="0.2952" style="stop-color:#444443"/>
	<stop  offset="0.4441" style="stop-color:#6A6A69"/>
	<stop  offset="0.5106" style="stop-color:#F5F5F5"/>
	<stop  offset="0.7207" style="stop-color:#B2B2B2"/>
	<stop  offset="0.8537" style="stop-color:#6B6B6A"/>
	<stop  offset="1" style="stop-color:#000000"/>
</linearGradient>
<path class="st0" d="M47.6,7.1c-0.1-0.1-0.2,0-0.3,0c-0.1,0-0.2,0-0.2,0c-0.7,0.2-1,0.2-1.2,0.3c-0.9,0.2-2,0.2-4.3,0.4
	c-0.1,0-0.4,0-0.7,0c-0.7,0-1.1-0.3-1.5-0.4l-6.4-2.9l-7.7-3l-7.2,3.1l-6.4,2.9c-0.4,0.1-0.8,0.4-1.5,0.4c-0.3,0-0.6,0-0.7,0
	C7.4,7.7,6.4,7.7,5.5,7.5c-0.2,0-0.5-0.1-1.2-0.3c0,0-0.1,0-0.2,0c-0.1,0-0.2-0.1-0.3,0C3.6,7.3,3.8,7.7,3.8,7.8
	c0.1,0.5,0.3,1.1,0.3,1.9c0.1,2.8,0.2,5.1,0.2,5.6c0,2.8,0.8,10.3,4.5,17.2c4.7,8.9,12.1,13.5,14.8,14.9c0.9,0.5,1.6,0.9,2.1,1.1
	c0.5-0.2,1.3-0.6,2.1-1.1c2.7-1.5,10.2-6,14.8-14.9c3.6-6.9,4.5-14.3,4.4-17.3c0-0.5,0.1-2.8,0.2-5.6c0-0.9,0.2-1.5,0.3-1.9
	C47.5,7.6,47.7,7.2,47.6,7.1z"/>
<linearGradient id="SVGID_00000170238581779766063300000004351741526981415090_" gradientUnits="userSpaceOnUse" x1="25.6505" y1="24.6071" x2="44.8375" y2="24.6071">
	<stop  offset="0" style="stop-color:#FFFFFF"/>
	<stop  offset="2.659574e-03" style="stop-color:#EBEBEA"/>
	<stop  offset="0.2846" style="stop-color:#626261"/>
	<stop  offset="0.6037" style="stop-color:#434341"/>
	<stop  offset="0.8777" style="stop-color:#5D5D5C"/>
	<stop  offset="0.9814" style="stop-color:#5A5A59"/>
</linearGradient>
<path style="fill:url(#SVGID_00000170238581779766063300000004351741526981415090_);" d="M25.7,3.8l6.3,2.8l5.6,2.5
	c0.4,0.1,0.8,0.3,1.4,0.3c0.2,0,0.5,0,0.6,0c2.1-0.1,2.9-0.1,3.7-0.2c0.1,0,0.1,0,0.2-0.1C43.5,9,43.7,9,44.3,8.8
	c0,0,0.2-0.1,0.3-0.1c0.1,0,0.2-0.1,0.3,0c0.1,0.2-0.1,0.4-0.1,0.6c-0.1,0.5-0.3,1-0.3,1.7c-0.1,2.4-0.2,4.5-0.2,4.9
	c0.1,2.5-0.7,9.2-3.9,15.3c-4.2,7.9-10.7,12-13.1,13.3c-0.6,0.4-1.2,0.6-1.6,0.8V3.8z"/>
<linearGradient id="SVGID_00000012435067963643646460000006552318431905618058_" gradientUnits="userSpaceOnUse" x1="6.4417" y1="24.6071" x2="25.6288" y2="24.6071">
	<stop  offset="0" style="stop-color:#6A6A6A"/>
	<stop  offset="0.2527" style="stop-color:#FFFFFF"/>
	<stop  offset="0.641" style="stop-color:#545453"/>
	<stop  offset="1" style="stop-color:#000000"/>
</linearGradient>
<path style="fill:url(#SVGID_00000012435067963643646460000006552318431905618058_);" d="M25.6,3.8l-6.3,2.8l-5.6,2.5
	c-0.4,0.1-0.8,0.3-1.4,0.3c-0.2,0-0.5,0-0.6,0C9.8,9.3,8.9,9.3,8.1,9.2C8,9.1,8,9.1,7.9,9.1C7.8,9,7.5,9,7,8.8c0,0-0.2-0.1-0.3-0.1
	c-0.1,0-0.2-0.1-0.3,0C6.4,8.9,6.5,9.2,6.6,9.3c0.1,0.5,0.3,1,0.3,1.7C7,13.5,7.1,15.5,7.1,16c-0.1,2.5,0.7,9.2,3.9,15.3
	c4.2,7.9,10.7,12,13.1,13.3c0.6,0.4,1.2,0.6,1.6,0.8V3.8z"/>
<path class="st3" d="M42.6,10.5c-0.1-0.1-0.2,0-0.2,0c-0.1,0-0.2,0.1-0.2,0.1c-0.5,0.2-0.7,0.2-0.8,0.3c-0.1,0-0.1,0-0.2,0.1
	c-0.7,0.1-1.5,0.1-3.3,0.2c-0.1,0-0.3,0-0.5,0c-0.5,0-0.9-0.2-1.2-0.3l-5-2.2l-5.6-2.5l-5.6,2.5l-5,2.2c-0.3,0.1-0.7,0.3-1.2,0.3
	c-0.2,0-0.4,0-0.5,0c-1.8-0.1-2.6-0.1-3.3-0.2c-0.1,0-0.1,0-0.2-0.1c-0.2-0.1-0.4-0.1-0.8-0.3c0,0-0.1-0.1-0.2-0.1
	c-0.1,0-0.2-0.1-0.2,0c-0.1,0.2,0.1,0.4,0.1,0.5C8.8,11.5,9,11.9,9,12.6c0.1,2.1,0.2,4,0.2,4.4c-0.1,2.2,0.6,8.2,3.4,13.6
	c3.7,7,9.5,10.7,11.6,11.8c0.5,0.3,1,0.6,1.4,0.7c0.4-0.2,0.9-0.4,1.4-0.7c2.1-1.1,7.9-4.7,11.6-11.8c2.8-5.4,3.5-11.3,3.4-13.6
	c0-0.4,0.1-2.2,0.2-4.4c0-0.7,0.2-1.1,0.3-1.5C42.6,10.9,42.7,10.7,42.6,10.5z"/>
<linearGradient id="SVGID_00000084490913324352633120000004332541933014787204_" gradientUnits="userSpaceOnUse" x1="23.2759" y1="15.5201" x2="28.1983" y2="15.5201">
	<stop  offset="0" style="stop-color:#FFFFFF"/>
	<stop  offset="0.4973" style="stop-color:#585856"/>
	<stop  offset="0.8936" style="stop-color:#000000"/>
</linearGradient>
<path style="fill:url(#SVGID_00000084490913324352633120000004332541933014787204_);stroke:#FFFFFF;stroke-width:0.5;stroke-miterlimit:10;" d="
	M28.2,16.5L25.7,10l-2.4,6.5c-0.1,0.4,0,0.9,0.2,1.4c0.3,1,0.9,1.6,1.2,2l1.1,1.1l1.1-1.1c0.3-0.4,0.9-1.1,1.2-2
	C28.2,17.4,28.3,16.9,28.2,16.5z"/>
<linearGradient id="SVGID_00000088091361903297704470000005596029754580299196_" gradientUnits="userSpaceOnUse" x1="14.8813" y1="26.7622" x2="36.593" y2="26.7622">
	<stop  offset="2.925532e-02" style="stop-color:#C9C9C9"/>
	<stop  offset="0.133" style="stop-color:#444442"/>
	<stop  offset="0.2261" style="stop-color:#6E6E6D"/>
	<stop  offset="0.3431" style="stop-color:#9F9F9E"/>
	<stop  offset="0.479" style="stop-color:#D1D1D0"/>
	<stop  offset="0.8404" style="stop-color:#353534"/>
</linearGradient>
<path style="fill:url(#SVGID_00000088091361903297704470000005596029754580299196_);stroke:#FFFFFF;stroke-width:0.75;stroke-miterlimit:10;" d="
	M36.5,14.6l-0.4,0.3c0,0,0,0,0,0L35,15.6c-0.1,1.2-0.4,2.6-0.7,4.3c-0.6,2.8-1.3,5.8-3.2,9.2c-1.7,3-3.6,4.6-4.3,5
	c-0.5,0.4-0.8,0.6-1.1,0.8c0,0.1,0,0.2,0,0.3c0,0,0,0,0,0c0,0,0,0,0,0c0-0.1,0-0.2,0-0.3c-0.3-0.2-0.6-0.4-1.1-0.8
	c-0.7-0.5-2.5-2-4.3-5c-1.9-3.4-2.6-6.4-3.2-9.2c-0.3-1.7-0.6-3.1-0.7-4.3l-1.1-0.7c0,0,0,0,0,0l-0.4-0.3l-0.1,0
	c0,0.7,0,1.6,0.1,2.8c0.2,3.1,0.3,5.6,1.2,8.5c1,3.4,2.7,6.6,4.5,8.2c0.1,0.1,0.6,0.6,1.3,1.2c1.3,1.2,2.3,2.1,3,2.7l0.9,0.8
	l0.9-0.8c0.7-0.6,1.7-1.6,3-2.7c0.7-0.6,1.2-1.1,1.3-1.2c1.7-1.6,3.5-4.8,4.5-8.2c0.9-2.9,1-5.4,1.2-8.5
	C36.6,16.3,36.6,15.3,36.5,14.6L36.5,14.6z"/>
<linearGradient id="SVGID_00000006676307419418630960000009169438636621821099_" gradientUnits="userSpaceOnUse" x1="18.5272" y1="15.3966" x2="27.5594" y2="15.5514">
	<stop  offset="0.2527" style="stop-color:#9F9F9E"/>
	<stop  offset="0.3885" style="stop-color:#D1D1D0"/>
	<stop  offset="0.4681" style="stop-color:#FFFFFF"/>
	<stop  offset="0.5559" style="stop-color:#C3C3C3"/>
	<stop  offset="0.7472" style="stop-color:#545453"/>
	<stop  offset="1" style="stop-color:#000000"/>
</linearGradient>
<path style="fill:url(#SVGID_00000006676307419418630960000009169438636621821099_);" d="M23.3,16.5c-0.1,0.4,0,0.9,0.2,1.4
	c0.3,1,0.9,1.6,1.2,2l1.1,1.1V10L23.3,16.5z"/>
<linearGradient id="SVGID_00000057138960042095624790000005470162988415439514_" gradientUnits="userSpaceOnUse" x1="25.3657" y1="15.5201" x2="27.8269" y2="15.5201">
	<stop  offset="0" style="stop-color:#FFFFFF"/>
	<stop  offset="0.7128" style="stop-color:#5E5E5C"/>
</linearGradient>
<path style="fill:url(#SVGID_00000057138960042095624790000005470162988415439514_);" d="M28.2,16.5c0.1,0.4,0,0.9-0.2,1.4
	c-0.3,1-0.9,1.6-1.2,2L25.7,21V10L28.2,16.5z"/>
<linearGradient id="SVGID_00000088131089398814439810000008218929757069733037_" gradientUnits="userSpaceOnUse" x1="14.7843" y1="26.7622" x2="25.6402" y2="26.7622">
	<stop  offset="0" style="stop-color:#3B3B3B"/>
	<stop  offset="9.308511e-02" style="stop-color:#444444"/>
	<stop  offset="1" style="stop-color:#30302E"/>
</linearGradient>
<path style="fill:url(#SVGID_00000088131089398814439810000008218929757069733037_);" d="M24.6,34.4c-0.7-0.5-2.6-2-4.5-5.1
	c-2-3.4-2.7-6.5-3.4-9.4c-0.5-1.9-0.6-3.4-0.7-4.6l-1.1-0.7l-0.1,0c0,0.7,0,1.6,0.1,2.8c0.2,3.1,0.3,5.6,1.2,8.5
	c1,3.4,2.7,6.6,4.5,8.2c0.1,0.1,0.6,0.6,1.3,1.2c1.3,1.2,2.3,2.1,3,2.7l0.9,0.8c0-1.3,0-2.5,0-3.7C25.3,35,25,34.8,24.6,34.4z"/>
<linearGradient id="SVGID_00000152236117738550589520000011252403984693331859_" gradientUnits="userSpaceOnUse" x1="14.0977" y1="27.6011" x2="23.2157" y2="26.3309">
	<stop  offset="2.925532e-02" style="stop-color:#C9C9C9"/>
	<stop  offset="0.133" style="stop-color:#444442"/>
	<stop  offset="0.2261" style="stop-color:#6E6E6D"/>
	<stop  offset="0.3431" style="stop-color:#9F9F9E"/>
	<stop  offset="0.479" style="stop-color:#D1D1D0"/>
	<stop  offset="0.8404" style="stop-color:#161616"/>
</linearGradient>
<path style="fill:url(#SVGID_00000152236117738550589520000011252403984693331859_);" d="M24.6,34.1c-0.7-0.5-2.5-2-4.3-5
	c-1.9-3.4-2.6-6.4-3.2-9.2c-0.3-1.7-0.6-3.1-0.7-4.3l-1.1-0.7c0,0.6,0,1.4,0.1,2.4c0.2,3,0.3,5.5,1.2,8.4c1,3.3,2.6,6.5,4.2,8.1
	c0.1,0.1,0.6,0.6,1.2,1.2c1.2,1.2,2.2,2,2.8,2.6l1,0.9c0-1.3,0-2.4,0-3.7C25.3,34.7,25.1,34.5,24.6,34.1z"/>
<linearGradient id="SVGID_00000050630333602843427090000014518289551400535993_" gradientUnits="userSpaceOnUse" x1="34.2134" y1="18.9437" x2="30.2525" y2="31.23">
	<stop  offset="0" style="stop-color:#797978"/>
	<stop  offset="0.4707" style="stop-color:#90908F"/>
	<stop  offset="0.8777" style="stop-color:#5D5D5C"/>
	<stop  offset="0.9814" style="stop-color:#5E5E5C"/>
</linearGradient>
<path style="fill:url(#SVGID_00000050630333602843427090000014518289551400535993_);" d="M26.7,34.4c0.7-0.5,2.6-2,4.5-5.1
	c2-3.4,2.7-6.5,3.4-9.4c0.5-1.9,0.6-3.4,0.7-4.6l1.1-0.7l0.1,0c0,0.7,0,1.6-0.1,2.8c-0.2,3.1-0.3,5.6-1.2,8.5
	c-1,3.4-2.7,6.6-4.5,8.2c-0.1,0.1-0.6,0.6-1.3,1.2c-1.3,1.2-2.3,2.1-3,2.7l-0.9,0.8c0-1.3,0-2.5,0-3.7C25.9,35,26.3,34.8,26.7,34.4z
	"/>
<linearGradient id="SVGID_00000175289997031855549880000015359792046518777007_" gradientUnits="userSpaceOnUse" x1="25.6511" y1="26.7157" x2="36.0215" y2="26.7157">
	<stop  offset="2.925532e-02" style="stop-color:#C9C9C9"/>
	<stop  offset="0.133" style="stop-color:#444442"/>
	<stop  offset="0.2261" style="stop-color:#6E6E6D"/>
	<stop  offset="0.3431" style="stop-color:#9F9F9E"/>
	<stop  offset="0.479" style="stop-color:#D1D1D0"/>
	<stop  offset="0.8404" style="stop-color:#242422"/>
</linearGradient>
<path style="fill:url(#SVGID_00000175289997031855549880000015359792046518777007_);" d="M26.7,34.1c0.7-0.5,2.5-2,4.3-5
	c1.9-3.4,2.6-6.4,3.2-9.2c0.3-1.7,0.6-3.1,0.7-4.3l1.1-0.7c0,0.6,0,1.4-0.1,2.4c-0.2,3-0.3,5.5-1.2,8.4c-1,3.3-2.6,6.5-4.2,8.1
	c-0.1,0.1-0.6,0.6-1.2,1.2c-1.2,1.2-2.2,2-2.8,2.6l-1,0.9c0-1.3,0-2.4,0-3.7C25.9,34.7,26.2,34.5,26.7,34.1z"/>
<linearGradient id="SVGID_00000163073281477959964370000002122960206975566774_" gradientUnits="userSpaceOnUse" x1="19.3061" y1="24.1403" x2="31.9514" y2="24.1403">
	<stop  offset="0" style="stop-color:#FFFFFF"/>
	<stop  offset="0.8936" style="stop-color:#242422"/>
</linearGradient>
<path style="fill:url(#SVGID_00000163073281477959964370000002122960206975566774_);stroke:#FFFFFF;stroke-width:0.75;stroke-miterlimit:10;" d="
	M30.9,17.9c-1,1.2-1.6,2.2-2,2.9c-0.9,1.5-1.2,2.1-2.6,4.6c-0.3,0.5-0.5,0.8-0.6,1c-0.1-0.2-0.3-0.4-0.6-1c-1.5-2.4-1.7-3.1-2.6-4.6
	c-0.4-0.7-1.1-1.7-2-2.9l-1.1-1.5c0.2,2.7,0.8,4.9,1.3,6.5c0.6,1.6,1.2,3.6,2.4,5.2c0.2,0.3,0.9,1.2,1.7,2.4
	c0.4,0.5,0.7,0.9,0.9,1.3c0.2-0.3,0.5-0.7,0.9-1.3c0.9-1.3,1.6-2.1,1.7-2.4c1.3-1.6,1.8-3.6,2.4-5.2c0.5-1.6,1.1-3.8,1.3-6.5
	L30.9,17.9z"/>
<linearGradient id="SVGID_00000089554208840774187840000002716541551217972389_" gradientUnits="userSpaceOnUse" x1="18.8258" y1="24.7226" x2="25.0375" y2="23.7325">
	<stop  offset="7.446808e-02" style="stop-color:#444442"/>
	<stop  offset="0.2261" style="stop-color:#6E6E6D"/>
	<stop  offset="0.4896" style="stop-color:#D1D1D0"/>
	<stop  offset="0.7846" style="stop-color:#545453"/>
	<stop  offset="1" style="stop-color:#000000"/>
</linearGradient>
<path style="fill:url(#SVGID_00000089554208840774187840000002716541551217972389_);" d="M25.6,26.3c-0.1-0.2-0.3-0.4-0.6-1
	c-1.5-2.4-1.7-3.1-2.6-4.6c-0.4-0.7-1.1-1.7-2-2.9l-1.1-1.5c0.2,2.7,0.8,4.9,1.3,6.5c0.6,1.6,1.2,3.6,2.4,5.2
	c0.2,0.3,0.9,1.2,1.7,2.4c0.4,0.5,0.7,0.9,0.9,1.3V26.3z"/>
<linearGradient id="SVGID_00000008135447733732023300000000488378199293606284_" gradientUnits="userSpaceOnUse" x1="25.6408" y1="24.1403" x2="31.9634" y2="24.1403">
	<stop  offset="0" style="stop-color:#FFFFFF"/>
	<stop  offset="0.8936" style="stop-color:#242422"/>
</linearGradient>
<path style="fill:url(#SVGID_00000008135447733732023300000000488378199293606284_);" d="M25.6,26.3c0.1-0.2,0.3-0.4,0.6-1
	c1.5-2.4,1.7-3.1,2.6-4.6c0.4-0.7,1.1-1.7,2-2.9l1.1-1.5c-0.2,2.7-0.8,4.9-1.3,6.5c-0.6,1.6-1.2,3.6-2.4,5.2
	c-0.2,0.3-0.9,1.2-1.7,2.4c-0.4,0.5-0.7,0.9-0.9,1.3V26.3z"/>
</svg>
