<svg version="1.1" id="Слой_1" xmlns="http://www.w3.org/2000/svg" x="0" y="0" viewBox="0 0 50 50" style="enable-background:new 0 0 50 50" xml:space="preserve"><style></style><linearGradient id="SVGID_1_" gradientUnits="userSpaceOnUse" x1="3.207" y1="24.999" x2="48.169" y2="24.999"><stop offset=".044" style="stop-color:#3e3e3f"/><stop offset=".295" style="stop-color:#444443"/><stop offset=".444" style="stop-color:#6a6a69"/><stop offset=".511" style="stop-color:#f5f5f5"/><stop offset=".721" style="stop-color:#b2b2b2"/><stop offset=".854" style="stop-color:#6b6b6a"/><stop offset="1" style="stop-color:#000"/></linearGradient><path d="M47.6 7.1c-.1-.1-.2 0-.3 0h-.2c-.7.2-1 .2-1.2.3-.9.2-2 .2-4.3.4h-.7c-.7 0-1.1-.3-1.5-.4L33 4.5l-7.7-3-7.2 3.1-6.4 2.9c-.4.1-.8.4-1.5.4h-.7c-2.1-.2-3.1-.2-4-.4-.2 0-.5-.1-1.2-.3h-.2c-.1 0-.2-.1-.3 0-.2.1 0 .5 0 .6.1.5.3 1.1.3 1.9.1 2.8.2 5.1.2 5.6 0 2.8.8 10.3 4.5 17.2 4.7 8.9 12.1 13.5 14.8 14.9.9.5 1.6.9 2.1 1.1.5-.2 1.3-.6 2.1-1.1 2.7-1.5 10.2-6 14.8-14.9 3.6-6.9 4.5-14.3 4.4-17.3 0-.5.1-2.8.2-5.6 0-.9.2-1.5.3-1.9 0-.1.2-.5.1-.6z" style="fill:#151718;stroke:url(#SVGID_1_);stroke-miterlimit:10"/><linearGradient id="SVGID_00000170238581779766063300000004351741526981415090_" gradientUnits="userSpaceOnUse" x1="25.651" y1="24.607" x2="44.837" y2="24.607"><stop offset="0" style="stop-color:#fff"/><stop offset=".003" style="stop-color:#ebebea"/><stop offset=".285" style="stop-color:#626261"/><stop offset=".604" style="stop-color:#434341"/><stop offset=".878" style="stop-color:#5d5d5c"/><stop offset=".981" style="stop-color:#5a5a59"/></linearGradient><path style="fill:url(#SVGID_00000170238581779766063300000004351741526981415090_)" d="M25.7 3.8 32 6.6l5.6 2.5c.4.1.8.3 1.4.3h.6c2.1-.1 2.9-.1 3.7-.2.1 0 .1 0 .2-.1 0-.1.2-.1.8-.3 0 0 .2-.1.3-.1.1 0 .2-.1.3 0 .1.2-.1.4-.1.6-.1.5-.3 1-.3 1.7-.1 2.4-.2 4.5-.2 4.9.1 2.5-.7 9.2-3.9 15.3-4.2 7.9-10.7 12-13.1 13.3-.6.4-1.2.6-1.6.8V3.8z"/><linearGradient id="SVGID_00000012435067963643646460000006552318431905618058_" gradientUnits="userSpaceOnUse" x1="6.442" y1="24.607" x2="25.629" y2="24.607"><stop offset="0" style="stop-color:#6a6a6a"/><stop offset=".253" style="stop-color:#fff"/><stop offset=".641" style="stop-color:#545453"/><stop offset="1" style="stop-color:#000"/></linearGradient><path style="fill:url(#SVGID_00000012435067963643646460000006552318431905618058_)" d="m25.6 3.8-6.3 2.8-5.6 2.5c-.4.1-.8.3-1.4.3h-.6c-1.9-.1-2.8-.1-3.6-.2-.1-.1-.1-.1-.2-.1-.1-.1-.4-.1-.9-.3 0 0-.2-.1-.3-.1-.1 0-.2-.1-.3 0 0 .2.1.5.2.6.1.5.3 1 .3 1.7.1 2.5.2 4.5.2 5-.1 2.5.7 9.2 3.9 15.3 4.2 7.9 10.7 12 13.1 13.3.6.4 1.2.6 1.6.8V3.8z"/><path d="M42.6 10.5c-.1-.1-.2 0-.2 0-.1 0-.2.1-.2.1-.5.2-.7.2-.8.3-.1 0-.1 0-.2.1-.7.1-1.5.1-3.3.2h-.5c-.5 0-.9-.2-1.2-.3l-5-2.2-5.6-2.5L20 8.7l-5 2.2c-.3.1-.7.3-1.2.3h-.5c-1.8-.1-2.6-.1-3.3-.2-.1 0-.1 0-.2-.1-.2-.1-.4-.1-.8-.3 0 0-.1-.1-.2-.1s-.2-.1-.2 0c-.1.2.1.4.1.5.1.5.3.9.3 1.6.1 2.1.2 4 .2 4.4-.1 2.2.6 8.2 3.4 13.6 3.7 7 9.5 10.7 11.6 11.8.5.3 1 .6 1.4.7.4-.2.9-.4 1.4-.7 2.1-1.1 7.9-4.7 11.6-11.8 2.8-5.4 3.5-11.3 3.4-13.6 0-.4.1-2.2.2-4.4 0-.7.2-1.1.3-1.5.1-.2.2-.4.1-.6z" style="fill:#161616"/><linearGradient id="SVGID_00000084490913324352633120000004332541933014787204_" gradientUnits="userSpaceOnUse" x1="23.276" y1="15.52" x2="28.198" y2="15.52"><stop offset="0" style="stop-color:#fff"/><stop offset=".497" style="stop-color:#585856"/><stop offset=".894" style="stop-color:#000"/></linearGradient><path style="fill:url(#SVGID_00000084490913324352633120000004332541933014787204_);stroke:#fff;stroke-width:.5;stroke-miterlimit:10" d="M28.2 16.5 25.7 10l-2.4 6.5c-.1.4 0 .9.2 1.4.3 1 .9 1.6 1.2 2l1.1 1.1 1.1-1.1c.3-.4.9-1.1 1.2-2 .1-.5.2-1 .1-1.4z"/><linearGradient id="SVGID_00000088091361903297704470000005596029754580299196_" gradientUnits="userSpaceOnUse" x1="14.881" y1="26.762" x2="36.593" y2="26.762"><stop offset=".029" style="stop-color:#c9c9c9"/><stop offset=".133" style="stop-color:#444442"/><stop offset=".226" style="stop-color:#6e6e6d"/><stop offset=".343" style="stop-color:#9f9f9e"/><stop offset=".479" style="stop-color:#d1d1d0"/><stop offset=".84" style="stop-color:#353534"/></linearGradient><path style="fill:url(#SVGID_00000088091361903297704470000005596029754580299196_);stroke:#fff;stroke-width:.75;stroke-miterlimit:10" d="m36.5 14.6-.4.3-1.1.7c-.1 1.2-.4 2.6-.7 4.3-.6 2.8-1.3 5.8-3.2 9.2-1.7 3-3.6 4.6-4.3 5-.5.4-.8.6-1.1.8v.3-.3c-.3-.2-.6-.4-1.1-.8-.7-.5-2.5-2-4.3-5-1.9-3.4-2.6-6.4-3.2-9.2-.3-1.7-.6-3.1-.7-4.3l-1.1-.7-.4-.3h-.1c0 .7 0 1.6.1 2.8.2 3.1.3 5.6 1.2 8.5 1 3.4 2.7 6.6 4.5 8.2.1.1.6.6 1.3 1.2 1.3 1.2 2.3 2.1 3 2.7l.9.8.9-.8c.7-.6 1.7-1.6 3-2.7.7-.6 1.2-1.1 1.3-1.2 1.7-1.6 3.5-4.8 4.5-8.2.9-2.9 1-5.4 1.2-8.5-.1-1.1-.1-2.1-.2-2.8z"/><linearGradient id="SVGID_00000006676307419418630960000009169438636621821099_" gradientUnits="userSpaceOnUse" x1="18.527" y1="15.397" x2="27.559" y2="15.551"><stop offset=".253" style="stop-color:#9f9f9e"/><stop offset=".389" style="stop-color:#d1d1d0"/><stop offset=".468" style="stop-color:#fff"/><stop offset=".556" style="stop-color:#c3c3c3"/><stop offset=".747" style="stop-color:#545453"/><stop offset="1" style="stop-color:#000"/></linearGradient><path style="fill:url(#SVGID_00000006676307419418630960000009169438636621821099_)" d="M23.3 16.5c-.1.4 0 .9.2 1.4.3 1 .9 1.6 1.2 2l1.1 1.1V10l-2.5 6.5z"/><linearGradient id="SVGID_00000057138960042095624790000005470162988415439514_" gradientUnits="userSpaceOnUse" x1="25.366" y1="15.52" x2="27.827" y2="15.52"><stop offset="0" style="stop-color:#fff"/><stop offset=".713" style="stop-color:#5e5e5c"/></linearGradient><path style="fill:url(#SVGID_00000057138960042095624790000005470162988415439514_)" d="M28.2 16.5c.1.4 0 .9-.2 1.4-.3 1-.9 1.6-1.2 2L25.7 21V10l2.5 6.5z"/><linearGradient id="SVGID_00000088131089398814439810000008218929757069733037_" gradientUnits="userSpaceOnUse" x1="14.784" y1="26.762" x2="25.64" y2="26.762"><stop offset="0" style="stop-color:#3b3b3b"/><stop offset=".093" style="stop-color:#444"/><stop offset="1" style="stop-color:#30302e"/></linearGradient><path style="fill:url(#SVGID_00000088131089398814439810000008218929757069733037_)" d="M24.6 34.4c-.7-.5-2.6-2-4.5-5.1-2-3.4-2.7-6.5-3.4-9.4-.5-1.9-.6-3.4-.7-4.6l-1.1-.7h-.1c0 .7 0 1.6.1 2.8.2 3.1.3 5.6 1.2 8.5 1 3.4 2.7 6.6 4.5 8.2.1.1.6.6 1.3 1.2 1.3 1.2 2.3 2.1 3 2.7l.9.8v-3.7c-.5-.1-.8-.3-1.2-.7z"/><linearGradient id="SVGID_00000152236117738550589520000011252403984693331859_" gradientUnits="userSpaceOnUse" x1="14.098" y1="27.601" x2="23.216" y2="26.331"><stop offset=".029" style="stop-color:#c9c9c9"/><stop offset=".133" style="stop-color:#444442"/><stop offset=".226" style="stop-color:#6e6e6d"/><stop offset=".343" style="stop-color:#9f9f9e"/><stop offset=".479" style="stop-color:#d1d1d0"/><stop offset=".84" style="stop-color:#161616"/></linearGradient><path style="fill:url(#SVGID_00000152236117738550589520000011252403984693331859_)" d="M24.6 34.1c-.7-.5-2.5-2-4.3-5-1.9-3.4-2.6-6.4-3.2-9.2-.3-1.7-.6-3.1-.7-4.3l-1.1-.7c0 .6 0 1.4.1 2.4.2 3 .3 5.5 1.2 8.4 1 3.3 2.6 6.5 4.2 8.1L22 35c1.2 1.2 2.2 2 2.8 2.6l1 .9v-3.7c-.5-.1-.7-.3-1.2-.7z"/><linearGradient id="SVGID_00000050630333602843427090000014518289551400535993_" gradientUnits="userSpaceOnUse" x1="34.213" y1="18.944" x2="30.253" y2="31.23"><stop offset="0" style="stop-color:#797978"/><stop offset=".471" style="stop-color:#90908f"/><stop offset=".878" style="stop-color:#5d5d5c"/><stop offset=".981" style="stop-color:#5e5e5c"/></linearGradient><path style="fill:url(#SVGID_00000050630333602843427090000014518289551400535993_)" d="M26.7 34.4c.7-.5 2.6-2 4.5-5.1 2-3.4 2.7-6.5 3.4-9.4.5-1.9.6-3.4.7-4.6l1.1-.7h.1c0 .7 0 1.6-.1 2.8-.2 3.1-.3 5.6-1.2 8.5-1 3.4-2.7 6.6-4.5 8.2-.1.1-.6.6-1.3 1.2-1.3 1.2-2.3 2.1-3 2.7l-.9.8v-3.7c.4-.1.8-.3 1.2-.7z"/><linearGradient id="SVGID_00000175289997031855549880000015359792046518777007_" gradientUnits="userSpaceOnUse" x1="25.651" y1="26.716" x2="36.022" y2="26.716"><stop offset=".029" style="stop-color:#c9c9c9"/><stop offset=".133" style="stop-color:#444442"/><stop offset=".226" style="stop-color:#6e6e6d"/><stop offset=".343" style="stop-color:#9f9f9e"/><stop offset=".479" style="stop-color:#d1d1d0"/><stop offset=".84" style="stop-color:#242422"/></linearGradient><path style="fill:url(#SVGID_00000175289997031855549880000015359792046518777007_)" d="M26.7 34.1c.7-.5 2.5-2 4.3-5 1.9-3.4 2.6-6.4 3.2-9.2.3-1.7.6-3.1.7-4.3l1.1-.7c0 .6 0 1.4-.1 2.4-.2 3-.3 5.5-1.2 8.4-1 3.3-2.6 6.5-4.2 8.1L29.3 35c-1.2 1.2-2.2 2-2.8 2.6l-1 .9v-3.7c.4-.1.7-.3 1.2-.7z"/><linearGradient id="SVGID_00000163073281477959964370000002122960206975566774_" gradientUnits="userSpaceOnUse" x1="19.306" y1="24.14" x2="31.951" y2="24.14"><stop offset="0" style="stop-color:#fff"/><stop offset=".894" style="stop-color:#242422"/></linearGradient><path style="fill:url(#SVGID_00000163073281477959964370000002122960206975566774_);stroke:#fff;stroke-width:.75;stroke-miterlimit:10" d="M30.9 17.9c-1 1.2-1.6 2.2-2 2.9-.9 1.5-1.2 2.1-2.6 4.6-.3.5-.5.8-.6 1-.1-.2-.3-.4-.6-1-1.5-2.4-1.7-3.1-2.6-4.6-.4-.7-1.1-1.7-2-2.9l-1.1-1.5c.2 2.7.8 4.9 1.3 6.5.6 1.6 1.2 3.6 2.4 5.2.2.3.9 1.2 1.7 2.4.4.5.7.9.9 1.3.2-.3.5-.7.9-1.3.9-1.3 1.6-2.1 1.7-2.4 1.3-1.6 1.8-3.6 2.4-5.2.5-1.6 1.1-3.8 1.3-6.5l-1.1 1.5z"/><linearGradient id="SVGID_00000089554208840774187840000002716541551217972389_" gradientUnits="userSpaceOnUse" x1="18.826" y1="24.723" x2="25.038" y2="23.733"><stop offset=".074" style="stop-color:#444442"/><stop offset=".226" style="stop-color:#6e6e6d"/><stop offset=".49" style="stop-color:#d1d1d0"/><stop offset=".785" style="stop-color:#545453"/><stop offset="1" style="stop-color:#000"/></linearGradient><path style="fill:url(#SVGID_00000089554208840774187840000002716541551217972389_)" d="M25.6 26.3c-.1-.2-.3-.4-.6-1-1.5-2.4-1.7-3.1-2.6-4.6-.4-.7-1.1-1.7-2-2.9l-1.1-1.5c.2 2.7.8 4.9 1.3 6.5.6 1.6 1.2 3.6 2.4 5.2.2.3.9 1.2 1.7 2.4.4.5.7.9.9 1.3v-5.4z"/><linearGradient id="SVGID_00000008135447733732023300000000488378199293606284_" gradientUnits="userSpaceOnUse" x1="25.641" y1="24.14" x2="31.963" y2="24.14"><stop offset="0" style="stop-color:#fff"/><stop offset=".894" style="stop-color:#242422"/></linearGradient><path style="fill:url(#SVGID_00000008135447733732023300000000488378199293606284_)" d="M25.6 26.3c.1-.2.3-.4.6-1 1.5-2.4 1.7-3.1 2.6-4.6.4-.7 1.1-1.7 2-2.9l1.1-1.5c-.2 2.7-.8 4.9-1.3 6.5-.6 1.6-1.2 3.6-2.4 5.2-.2.3-.9 1.2-1.7 2.4-.4.5-.7.9-.9 1.3v-5.4z"/></svg>